<?xml version="1.0" encoding="iso-8859-1"?>
<!-- Generator: Adobe Illustrator 21.0.2, SVG Export Plug-In . SVG Version: 6.00 Build 0)  -->
<svg xmlns="http://www.w3.org/2000/svg" xmlns:xlink="http://www.w3.org/1999/xlink" version="1.1" id="Layer_1" x="0px" y="0px" viewBox="0 0 80 80" style="enable-background:new 0 0 80 80;" xml:space="preserve" width="480px" height="480px">
<circle cx="15" cy="36" r="1"/>
<circle cx="19" cy="36" r="1"/>
<circle cx="23" cy="38" r="1"/>
<circle cx="26" cy="41" r="1"/>
<circle cx="25" cy="27" r="1"/>
<circle cx="29" cy="27" r="1"/>
<circle cx="33" cy="29" r="1"/>
<circle cx="36" cy="32" r="1"/>
<circle cx="56" cy="29" r="1"/>
<circle cx="56" cy="33" r="1"/>
<circle cx="55" cy="25" r="1"/>
<circle cx="69" cy="44" r="1"/>
<circle cx="67" cy="47" r="1"/>
<path d="M71.744,39.607C71.914,38.73,72,37.857,72,37c0-7.72-6.28-14-14-14c-0.792,0-1.605,0.074-2.426,0.222  C52.893,17.074,46.74,13,40,13c-7.917,0-14.755,5.47-16.542,13.111c-4.873,0.625-8.861,4.152-10.074,8.902  C5.949,35.337,0,41.486,0,49c0,7.72,6.28,14,14,14h18v-2H14C7.383,61,2,55.617,2,49c0-6.615,5.381-11.998,12.022-11.998  c0.001,0,0.003,0,0.004,0l0.994,0.021l0.153-0.833c0.825-4.506,4.599-7.86,9.177-8.155l0.775-0.05l0.143-0.764  C26.596,20.14,32.792,15,40,15c6.2,0,11.836,3.907,14.026,9.724l0.311,0.825l0.857-0.205C56.148,25.115,57.093,25,58,25  c6.617,0,12,5.383,12,12c0,0.997-0.138,2.025-0.409,3.057l-0.26,0.99l0.996,0.237C74.844,42.362,78,46.357,78,51  c0,5.514-4.486,10-10,10H48v2h20c6.617,0,12-5.383,12-12C80,45.761,76.652,41.208,71.744,39.607z"/>
<g>
	<g>
		<polygon style="fill:none;stroke:#000000;stroke-width:2;stroke-miterlimit:10;" points="50,53 40,43 30,53 37,53 37,70 43,70     43,53   "/>
	</g>
</g>
</svg>
